<svg xmlns="http://www.w3.org/2000/svg" viewBox="0 0 48 48"><defs><style>.cls-1{fill:#939598;}</style></defs><title>Asset 1</title><g id="Layer_2" data-name="Layer 2"><g id="Layer_1-2" data-name="Layer 1"><path class="cls-1" d="M24,48A24,24,0,1,1,48,24,24,24,0,0,1,24,48Zm2.8-13.9-7.31-7H37.16a2.32,2.32,0,0,0,2.32-2.33V23.23a2.32,2.32,0,0,0-2.32-2.33H19.49l7.31-7a2.33,2.33,0,0,0,0-3.32L25.77,9.52a2.31,2.31,0,0,0-3.28,0L9.65,22.35a2.32,2.32,0,0,0,0,3.29L22.49,38.48a2.31,2.31,0,0,0,3.28,0l1.07-1.06A2.33,2.33,0,0,0,26.8,34.1Z"/></g></g></svg>