<?xml version="1.0" encoding="UTF-8" standalone="no"?><!DOCTYPE svg PUBLIC "-//W3C//DTD SVG 1.1//EN" "http://www.w3.org/Graphics/SVG/1.1/DTD/svg11.dtd"><svg width="100%" height="100%" viewBox="0 0 700 266" version="1.1" xmlns="http://www.w3.org/2000/svg" xmlns:xlink="http://www.w3.org/1999/xlink" xml:space="preserve" xmlns:serif="http://www.serif.com/" style="fill-rule:evenodd;clip-rule:evenodd;stroke-linejoin:round;stroke-miterlimit:2;"><g><rect x="0" y="0" width="700" height="265.861"/><g transform="matrix(0.721086,0,0,0.72048,-102.63,-87.7432)"><path d="M255.464,337.755l0,-33.116l-33.541,0l0,33.116l-54.01,0l0,-42.016l6.002,0l0,-72.649l-6.002,0l0,-42.016l62.802,0l8.035,30.559l7.903,-30.559l62.822,0l0,42.016l-6.003,0l0,72.649l6.003,0l0,42.016l-54.011,0Zm-75.764,-144.884l0,18.421l6.003,0l0,96.244l-6.003,0l0,18.421l30.436,0l0,-18.421l-6.003,0l0,-85.849l5.791,-0.743l18.732,71.897l20.265,0l18.458,-71.903l5.875,0.744l0,85.854l-6.003,0l0,18.421l30.436,0l0,-18.421l-6.003,0l0,-96.244l6.003,0l0,-18.421l-41.909,0l-16.934,65.479l-17.216,-65.479l-41.928,0Zm80.648,102.868l1.118,0l0,-4.355l-1.118,4.355Zm-44.427,0l1.308,0l-1.308,-5.019l0,5.019Z" style="fill:#fff;"/><path d="M420,229.092l-42.006,0l0,-6.002l-9.324,0l0,15.316l27.114,0l0,42.016l-27.114,0l0,15.317l9.324,0l0,-6.003l42.006,0l0,48.019l-99.339,0l0,-42.016l6.002,0l0,-72.649l-6.002,0l0,-42.016l99.339,0l0,48.018Zm-63.118,78.444l0,-38.911l27.114,0l0,-18.421l-27.114,0l0,-38.912l32.899,0l0,6.003l18.431,0l0,-24.424l-75.763,0l0,18.421l6.002,0l0,96.244l-6.002,0l0,18.421l75.763,0l0,-24.423l-18.431,0l0,6.002l-32.899,0Z" style="fill:#fff;"/><path d="M430.98,337.755l0,-42.016l6.002,0l0,-72.649l-6.002,0l0,-42.016l54.011,0l0,42.016l-6.003,0l0,72.649l13.878,0l0,-22.561l42.006,0l0,64.577l-103.892,0Zm11.787,-144.884l0,18.421l6.003,0l0,96.244l-6.003,0l0,18.421l80.317,0l0,-40.981l-18.431,0l0,22.56l-37.453,0l0,-96.244l6.003,0l0,-18.421l-30.436,0Z" style="fill:#fff;"/><path d="M545.851,337.755l0,-42.016l6.003,0l0,-72.649l-6.003,0l0,-42.016l54.011,0l0,42.016l-6.002,0l0,72.649l13.877,0l0,-22.561l42.007,0l0,64.577l-103.893,0Zm11.788,-144.884l0,18.421l6.003,0l0,96.244l-6.003,0l0,18.421l80.317,0l0,-40.981l-18.431,0l0,22.56l-37.453,0l0,-96.244l6.003,0l0,-18.421l-30.436,0Z" style="fill:#fff;"/><path d="M764.616,205.432l0,107.964l-24.359,24.359l-55.175,0l-24.359,-24.359l0,-107.964l24.359,-24.358l55.175,0l24.359,24.358Zm-74.654,-12.561l-17.451,17.451l0,98.185l17.451,17.45l45.415,0l17.451,-17.45l0,-98.185l-17.451,-17.451l-45.415,0Zm44.435,24.868l0,83.351l-6.876,6.446l-30.02,0l-6.559,-6.558l0,-83.127l6.559,-6.559l30.02,0l6.876,6.447Zm-31.667,5.351l0,72.649l19.879,0l0,-72.649l-19.879,0Z" style="fill:#fff;"/><path d="M873.177,181.074l43.98,0l0,42.016l-7.142,0l-15.109,114.665l-39.103,0l-9.365,-35.644l-9.505,35.644l-39.086,0l-15.109,-114.665l-7.143,0l0,-42.016l43.981,0l5.104,39.301l4.028,-15.085l35.337,0l4.028,15.085l5.104,-39.301Zm-45.299,144.883l18.644,-69.914l18.37,69.914l19.678,0l15.11,-114.665l5.69,0l0,-18.421l-21.838,0l-10.56,81.306l-2.687,0.177l-15.291,-57.266l-17.235,0l-15.291,57.266l-2.688,-0.177l-10.559,-81.306l-21.838,0l0,18.421l5.69,0l15.109,114.665l19.696,0Z" style="fill:#fff;"/><path d="M1064.94,223.09l-4.255,0l19.052,72.649l7.764,0l0,42.016l-40.017,0l-8.072,-30.219l-25.691,0l-7.866,30.219l-40.253,0l0,-42.016l7.774,0l19.231,-72.649l-4.445,0l0,-42.016l76.778,0l0,42.016Zm-64.99,-30.219l0,18.421l7.974,0l-25.476,96.244l-5.059,0l0,18.421l19.356,0l7.865,-30.218l43.852,0l8.073,30.218l19.178,0l0,-18.421l-5.069,0l-25.24,-96.244l7.749,0l0,-18.421l-53.203,0Zm43.79,84.447l-34.377,0l17.188,-64.643l17.189,64.643Zm-19.042,-11.798l3.707,0l-1.854,-6.97l-1.853,6.97Z" style="fill:#fff;"/></g><g><path d="M171.77,177.866c0.843,-0.728 1.495,-1.302 1.956,-1.724c0.46,-0.421 0.824,-0.785 1.092,-1.092c0.614,-0.575 1.113,-1.13 1.496,-1.667c0.383,-0.536 0.594,-1.015 0.633,-1.436c0.345,-1.303 0.747,-2.931 1.208,-4.886c0.46,-1.954 1.054,-4.214 1.783,-6.781c0.345,-0.767 0.719,-1.734 1.122,-2.903c0.402,-1.168 0.834,-2.481 1.294,-3.937c0.46,-1.915 1.035,-3.659 1.725,-5.23c0.691,-1.571 1.458,-2.988 2.301,-4.253c0.269,-0.345 0.537,-0.776 0.806,-1.293c0.268,-0.517 0.536,-1.121 0.805,-1.81c0.268,-0.613 0.642,-1.332 1.122,-2.156c0.479,-0.823 1.025,-1.791 1.639,-2.902c1.572,-2.299 2.953,-4.272 4.141,-5.92c1.189,-1.647 2.167,-2.969 2.934,-3.965c1.381,-1.648 2.771,-3.19 4.17,-4.627c1.4,-1.437 2.809,-2.768 4.228,-3.994c1.304,-1.111 2.435,-1.926 3.394,-2.443c0.959,-0.517 1.726,-0.776 2.301,-0.776c0.537,0.46 0.92,0.881 1.15,1.265c0.269,0 0.537,-0.039 0.805,-0.115c0.998,0 1.726,0.402 2.186,1.207c0.46,0.804 0.691,1.992 0.691,3.563c0,0.345 -0.058,0.795 -0.173,1.351c-0.115,0.555 -0.268,1.235 -0.46,2.04c-0.269,0.268 -0.46,0.613 -0.575,1.034c-0.115,0.422 -0.211,0.843 -0.288,1.265c-0.038,0.536 -0.096,0.996 -0.173,1.379c-0.076,0.383 -0.172,0.728 -0.287,1.035c-0.499,0.919 -1.036,2.04 -1.611,3.362c-0.575,1.322 -1.189,2.864 -1.84,4.626c-0.384,0.652 -0.863,1.514 -1.438,2.587c-0.576,1.073 -1.266,2.26 -2.071,3.563c-0.384,0.728 -0.873,1.638 -1.467,2.73c-0.594,1.092 -1.352,2.347 -2.272,3.765c-0.23,0.536 -0.623,1.12 -1.179,1.752c-0.556,0.633 -1.218,1.37 -1.985,2.213c-0.23,0.613 -0.872,1.667 -1.927,3.161c-1.054,1.494 -2.521,3.429 -4.4,5.805c-0.921,1.188 -2.109,2.663 -3.567,4.425c-1.457,1.763 -3.144,3.851 -5.061,6.265c-0.729,2.874 -1.275,5.431 -1.64,7.673c-0.364,2.241 -0.546,4.186 -0.546,5.833c0,0.651 0.048,1.14 0.144,1.466c0.095,0.325 0.278,0.488 0.546,0.488l1.956,-2.126c0.728,-0.652 1.582,-1.859 2.559,-3.621c0.978,-1.763 2.1,-4.042 3.365,-6.839c1.113,-2.529 2.11,-4.474 2.992,-5.834c0.882,-1.36 1.61,-2.174 2.185,-2.443l2.014,-0.862c0.383,-0.153 0.728,-0.287 1.035,-0.402c0.307,-0.115 0.556,-0.172 0.748,-0.172c0.498,0 0.959,0.306 1.38,0.919c0.422,0.613 0.767,1.456 1.036,2.529c0.498,1.954 0.901,3.458 1.208,4.512c0.306,1.053 0.479,1.676 0.517,1.868c0.499,1.149 1.103,1.992 1.812,2.528c0.71,0.537 1.563,0.805 2.56,0.805c1.189,-0.192 2.588,-0.46 4.199,-0.805c0.307,0.767 0.662,1.59 1.064,2.472c0.403,0.881 0.815,1.82 1.237,2.816c-0.92,0.613 -1.85,1.207 -2.79,1.782c-0.939,0.574 -1.869,1.149 -2.79,1.724c-0.613,0.345 -1.495,0.603 -2.646,0.776c-1.15,0.172 -2.492,0.258 -4.026,0.258c-2.339,0 -4.151,-1.101 -5.436,-3.304c-1.285,-2.204 -2.061,-3.286 -2.33,-3.248l-0.345,0c-0.613,0.767 -1.256,1.552 -1.927,2.357c-0.671,0.804 -1.332,1.647 -1.984,2.529c-0.422,0.881 -1.016,1.896 -1.783,3.046c-0.767,1.149 -1.688,2.413 -2.761,3.793c-1.266,1.532 -2.378,2.682 -3.337,3.448c-0.958,0.767 -1.783,1.15 -2.473,1.15c-1.457,0 -2.598,-0.163 -3.423,-0.489c-0.824,-0.326 -1.313,-0.814 -1.466,-1.465c-0.46,-2.146 -0.815,-4.014 -1.064,-5.604c-0.25,-1.59 -0.374,-2.941 -0.374,-4.052c0,-0.345 0.019,-0.651 0.057,-0.919c0.039,-0.269 0.077,-0.518 0.115,-0.748c0.115,-0.498 0.249,-1.034 0.403,-1.609c0,-0.191 -0.048,-0.335 -0.144,-0.431c-0.096,-0.096 -0.259,-0.144 -0.489,-0.144c-0.115,0.154 -0.268,0.326 -0.46,0.518c-0.192,0.191 -0.46,0.402 -0.805,0.632c-0.154,-0.498 -0.422,-1.188 -0.806,-2.069c-0.383,-0.881 -0.882,-1.954 -1.495,-3.219Zm37.389,-53.105c-0.422,0 -1.266,0.757 -2.531,2.27c-1.266,1.514 -2.876,3.746 -4.832,6.696c-1.112,1.648 -2.205,3.286 -3.279,4.914c-1.073,1.628 -2.128,3.228 -3.163,4.799c-0.461,0.46 -0.796,0.92 -1.007,1.379c-0.211,0.46 -0.316,0.939 -0.316,1.437c-0.767,2.146 -1.515,4.157 -2.244,6.035c-0.69,2.031 -1.256,3.601 -1.697,4.713c-0.441,1.111 -0.699,1.762 -0.776,1.954l0.287,0.287c0.767,-0.69 1.419,-1.418 1.956,-2.184c0.767,-0.881 1.697,-2.021 2.79,-3.42c1.093,-1.398 2.33,-3.036 3.71,-4.913c1.381,-1.763 2.799,-3.995 4.257,-6.696c1.457,-2.701 3.029,-5.814 4.716,-9.339c0.959,-1.916 1.678,-3.449 2.157,-4.598c0.48,-1.15 0.72,-1.954 0.72,-2.414c0,-0.268 -0.048,-0.489 -0.144,-0.661c-0.096,-0.173 -0.297,-0.259 -0.604,-0.259Z" style="fill:#df624d;fill-rule:nonzero;"/><path d="M133.403,129.1c-0.153,-0.536 -0.508,-1.254 -1.064,-2.155c-0.556,-0.9 -1.256,-2.04 -2.1,-3.419c-0.882,-1.265 -1.534,-2.251 -1.955,-2.96c-0.422,-0.709 -0.633,-1.198 -0.633,-1.466c0,-1.069 1.237,-2.836 3.71,-5.299c2.473,-2.464 4.285,-3.695 5.436,-3.695c0.843,0.344 1.457,0.689 1.84,1.033l1.726,0c1.035,0.536 2.1,1.034 3.193,1.493c1.092,0.46 2.157,0.938 3.192,1.436c3.106,1.416 5.043,2.555 5.81,3.417c0.767,0.861 1.994,1.828 3.681,2.899c0.23,0.307 0.69,0.814 1.381,1.522c0.69,0.709 1.629,1.599 2.818,2.67c0.153,0.115 0.345,0.326 0.575,0.632c0.23,0.306 0.48,0.632 0.748,0.977c1.649,1.952 3.039,3.751 4.17,5.398c1.132,1.646 1.985,3.177 2.56,4.594c0.729,1.722 1.275,3.56 1.639,5.512c0.365,1.953 0.547,4.077 0.547,6.374c0,4.249 -0.575,7.829 -1.726,10.738c-1.15,2.91 -2.933,5.073 -5.349,6.49l-2.244,1.493l-0.747,0.746c-0.652,0.728 -1.736,1.503 -3.25,2.326c-1.515,0.823 -3.5,1.713 -5.954,2.67c-3.259,1.264 -6.691,2.642 -10.296,4.135c-0.997,0.498 -1.85,0.9 -2.56,1.206c-0.709,0.306 -1.256,0.459 -1.639,0.459c-1.112,0 -1.783,0.077 -2.013,0.23c-0.231,0.154 -0.441,1.69 -0.633,4.607c-0.115,1.881 -0.23,3.723 -0.345,5.527c0,0.653 0.201,1.412 0.604,2.275c0.402,0.864 1.025,1.795 1.869,2.793c-0.345,0.769 -0.738,1.519 -1.179,2.25c-0.441,0.73 -0.988,1.519 -1.639,2.365c-0.691,1.038 -1.4,1.817 -2.129,2.336c-0.728,0.519 -1.419,0.779 -2.071,0.779c-1.265,0 -2.195,-0.672 -2.789,-2.014c-0.595,-1.343 -0.892,-3.357 -0.892,-6.042c0,-0.844 0.134,-1.909 0.403,-3.194c0.268,-1.285 0.671,-2.868 1.208,-4.747l-0.288,-3.338c-0.498,-0.23 -0.987,-0.48 -1.467,-0.748c-0.479,-0.269 -0.949,-0.556 -1.409,-0.863c-0.69,-0.308 -1.179,-0.653 -1.467,-1.036c-0.287,-0.384 -0.431,-0.767 -0.431,-1.151c0,-0.46 0.93,-1.14 2.79,-2.04c1.859,-0.901 2.789,-2.098 2.789,-3.592c0,-0.422 -0.086,-1.035 -0.258,-1.84c-0.173,-0.804 -0.259,-1.398 -0.259,-1.781c0.345,-2.223 0.728,-4.464 1.15,-6.725c0.077,-0.23 0.173,-0.919 0.288,-2.069c0.115,-1.149 0.268,-2.797 0.46,-4.942c0.115,-0.652 0.288,-1.475 0.518,-2.472c0.23,-0.996 0.479,-2.145 0.747,-3.448l-0.402,-2.069l3.336,-18.277Zm4.717,-6.841c-0.23,0 -0.393,0.058 -0.489,0.173c-0.096,0.115 -0.144,0.287 -0.144,0.517c4.525,4.71 6.788,8.194 6.788,10.454c0,0.689 -0.739,3.666 -2.215,8.932c-1.476,5.266 -2.483,8.454 -3.02,9.564l0.46,2.413c-1.035,3.868 -1.812,7.19 -2.329,9.966c-0.518,2.776 -0.777,4.988 -0.777,6.635c0,0.421 0.086,0.727 0.259,0.919c0.173,0.191 0.412,0.287 0.719,0.287c0.383,0 1.074,-0.172 2.071,-0.517c0.997,-0.344 2.281,-0.938 3.854,-1.781c0.997,-0.536 1.994,-1.033 2.991,-1.493c0.997,-0.459 2.013,-0.938 3.048,-1.436c0.422,-0.23 0.911,-0.527 1.467,-0.891c0.556,-0.363 1.16,-0.794 1.812,-1.291c0.92,-0.69 1.649,-1.255 2.186,-1.695c0.537,-0.441 0.882,-0.718 1.035,-0.833c1.649,-1.149 2.896,-2.585 3.739,-4.309c0.844,-1.723 1.266,-3.772 1.266,-6.146c0,-1.417 -0.163,-2.853 -0.489,-4.308c-0.326,-1.455 -0.815,-2.949 -1.467,-4.48l-0.115,-1.379c-0.077,-0.191 -0.211,-0.411 -0.403,-0.661c-0.191,-0.249 -0.402,-0.526 -0.632,-0.832c-0.231,-0.23 -0.48,-0.536 -0.748,-0.92c-0.269,-0.383 -0.518,-0.88 -0.748,-1.493c-0.614,-1.187 -1.726,-2.662 -3.336,-4.423c-1.611,-1.762 -3.758,-3.791 -6.443,-6.089l-2.301,-2.125l-6.039,-2.758Z" style="fill:#df624d;fill-rule:nonzero;"/><path d="M213.991,177.866c0.268,-0.268 0.546,-0.622 0.834,-1.063c0.287,-0.441 0.623,-0.929 1.006,-1.465l4.429,-3.047c0.537,-0.651 1.362,-1.484 2.474,-2.5c1.112,-1.015 2.492,-2.251 4.141,-3.707c0.192,-0.421 0.508,-0.91 0.949,-1.465c0.441,-0.556 0.969,-1.102 1.582,-1.638l3.106,-2.701l3.222,-3.391c0.613,-0.537 1.246,-0.958 1.898,-1.265c0.652,-0.306 1.361,-0.46 2.128,-0.46c0.844,0 1.486,0.106 1.927,0.317c0.441,0.21 0.681,0.507 0.719,0.89c-0.383,0.882 -0.786,1.763 -1.208,2.644l0.345,0.517c1.688,-0.651 3.011,-1.13 3.969,-1.436c0.959,-0.307 1.573,-0.46 1.841,-0.46c2.799,0 4.899,0.852 6.299,2.557c1.399,1.705 2.099,4.282 2.099,7.731c0,0.651 -0.077,1.417 -0.23,2.298c-0.153,0.882 -0.403,1.84 -0.748,2.874c-0.383,1.15 -0.795,2.107 -1.236,2.874c-0.441,0.766 -0.854,1.322 -1.237,1.666c0.153,0.499 0.326,0.853 0.518,1.064c0.191,0.21 0.441,0.316 0.747,0.316c0.307,0 0.623,-0.096 0.949,-0.288c0.326,-0.191 0.719,-0.478 1.18,-0.862c0.383,0.843 0.757,1.715 1.121,2.615c0.365,0.901 0.738,1.792 1.122,2.673c-0.69,0.613 -1.361,1.207 -2.013,1.782c-0.652,0.574 -1.342,1.13 -2.071,1.666c-0.882,0.728 -1.716,1.255 -2.502,1.581c-0.786,0.325 -1.563,0.488 -2.33,0.488c-0.882,0 -1.611,-0.21 -2.186,-0.632c-0.575,-0.421 -1.035,-1.015 -1.38,-1.782c-0.959,1.265 -2.119,2.424 -3.48,3.478c-1.362,1.053 -2.867,1.925 -4.516,2.615c-0.958,0.459 -1.831,0.814 -2.617,1.063c-0.786,0.249 -1.505,0.373 -2.157,0.373c-0.192,0 -0.566,0.077 -1.122,0.23c-0.556,0.154 -1.006,0.23 -1.351,0.23c-2.186,0 -4.161,-0.919 -5.925,-2.759c-1.764,-1.839 -2.646,-3.889 -2.646,-6.149c0,-0.92 0.211,-2.136 0.633,-3.65c0.421,-1.513 0.632,-2.404 0.632,-2.672c0,-0.268 -0.086,-0.489 -0.258,-0.661c-0.173,-0.173 -0.413,-0.259 -0.72,-0.259c-0.191,0 -0.651,0.288 -1.38,0.862c-0.729,0.575 -1.764,1.399 -3.106,2.472c-0.115,0.153 -0.249,0.383 -0.403,0.689c-0.153,0.307 -0.402,0.652 -0.748,1.035c-0.306,-0.881 -0.652,-1.772 -1.035,-2.673c-0.383,-0.9 -0.805,-1.772 -1.265,-2.615Zm27.667,-10.517c-0.191,0.038 -0.469,0.239 -0.834,0.603c-0.364,0.364 -0.719,0.814 -1.064,1.351c-0.537,0.881 -1.15,1.839 -1.841,2.874c-0.421,0.459 -0.872,0.814 -1.351,1.063c-0.48,0.249 -1.026,0.431 -1.64,0.546c-0.383,0.038 -0.786,0.412 -1.208,1.12c-0.421,0.709 -0.843,1.734 -1.265,3.075c-0.422,1.188 -0.729,2.203 -0.92,3.046c-0.192,0.843 -0.288,1.552 -0.288,2.127c0,1.073 0.268,1.877 0.805,2.414c0.537,0.536 1.362,0.804 2.474,0.804c1.764,0 3.384,-0.488 4.86,-1.465c1.477,-0.977 2.867,-2.443 4.171,-4.397c0.613,-0.728 1.188,-1.418 1.725,-2.069c0.307,-0.23 0.556,-0.603 0.748,-1.121c0.192,-0.517 0.383,-1.159 0.575,-1.925l1.036,-3.276c-0.346,-1.149 -0.672,-2.059 -0.978,-2.73c-0.307,-0.67 -0.614,-1.082 -0.921,-1.236c-0.191,-0.115 -0.613,-0.239 -1.265,-0.373c-0.652,-0.134 -1.592,-0.278 -2.819,-0.431Z" style="fill:#df624d;fill-rule:nonzero;"/><path d="M255.579,177.866l0.23,-0.459c0.23,-0.307 0.527,-0.69 0.891,-1.15c0.365,-0.46 0.796,-0.996 1.294,-1.609c2.723,-2.529 5.379,-5.546 7.967,-9.052c2.589,-3.506 5.148,-7.539 7.679,-12.098c0.307,-0.422 0.652,-0.977 1.036,-1.667c0.383,-0.69 0.805,-1.552 1.265,-2.586c0,-0.23 -0.057,-0.403 -0.172,-0.517c-0.115,-0.115 -0.307,-0.173 -0.576,-0.173l-2.301,0.402l-7.19,0c-0.306,0 -0.815,-0.019 -1.524,-0.057c-0.709,-0.038 -1.218,-0.058 -1.524,-0.058l-2.014,-0.919c-0.46,-0.153 -0.814,-0.355 -1.064,-0.604c-0.249,-0.249 -0.374,-0.546 -0.374,-0.89c0,-2.453 0.259,-4.33 0.777,-5.633c0.518,-1.303 1.315,-1.954 2.39,-1.954c1.074,0 2.081,0.048 3.022,0.144c0.94,0.096 1.775,0.22 2.504,0.373c0.576,-0.115 1.113,-0.23 1.612,-0.344c1.036,0 1.918,0.038 2.648,0.114c0.729,0.077 1.285,0.173 1.67,0.288c0.498,-0.115 0.987,-0.22 1.467,-0.316c0.48,-0.096 1.008,-0.201 1.583,-0.316l1.9,0.574c1.344,-0.153 2.774,-2.03 4.292,-5.632c1.517,-3.602 3.139,-5.402 4.867,-5.402c0.921,0 1.63,0.287 2.129,0.862c0.498,0.574 0.747,1.417 0.747,2.528c0,0.882 -0.259,2.041 -0.778,3.478c-0.519,1.436 -0.817,2.519 -0.893,3.247c0.075,0.153 0.179,0.316 0.311,0.488c0.132,0.173 0.33,0.374 0.594,0.604c0.226,0.153 0.387,0.412 0.481,0.776c0.094,0.364 0.142,0.814 0.142,1.35c0,2.299 -0.106,4.071 -0.316,5.317c-0.21,1.245 -0.545,1.887 -1.003,1.925l-3.899,0.805c-0.076,0.383 -0.172,0.852 -0.288,1.408c-0.115,0.555 -0.269,1.197 -0.461,1.925c-0.653,1.916 -1.384,4.349 -2.191,7.299c-0.807,2.95 -1.71,6.437 -2.709,10.46c-0.616,3.219 -1.087,5.824 -1.413,7.817c-0.327,1.992 -0.49,3.333 -0.49,4.023c0,0.613 0.096,1.072 0.287,1.379c0.192,0.306 0.48,0.46 0.863,0.46c0.23,0 1.064,-0.556 2.502,-1.667c1.439,-1.111 3.442,-2.759 6.011,-4.943l2.244,5.288c-0.384,0.421 -0.921,0.919 -1.611,1.494c-0.69,0.575 -1.515,1.188 -2.473,1.839c-0.384,0.422 -0.863,0.891 -1.438,1.408c-0.575,0.518 -1.208,1.121 -1.898,1.811c-0.691,0.766 -1.371,1.532 -2.042,2.299c-0.672,0.766 -1.352,1.513 -2.042,2.241c-0.921,0.996 -1.822,1.715 -2.704,2.155c-0.882,0.441 -1.706,0.661 -2.473,0.661c-1.688,0 -2.944,-0.498 -3.768,-1.494c-0.825,-0.996 -1.237,-2.51 -1.237,-4.54c0,-2.223 0.077,-4.148 0.231,-5.776c0.153,-1.629 0.403,-2.941 0.748,-3.937c0.154,-0.307 0.269,-0.575 0.346,-0.805c0,-0.383 0.058,-0.9 0.173,-1.552c0.115,-0.651 0.25,-1.417 0.403,-2.299c0.23,-1.494 0.48,-2.988 0.749,-4.482c0.422,-0.92 0.863,-1.897 1.323,-2.932c0,-0.191 -0.154,-0.364 -0.46,-0.517l-0.576,0.345c-0.575,0.92 -1.323,1.887 -2.243,2.902c-0.921,1.016 -2.014,2.079 -3.28,3.19c-1.957,1.878 -3.951,3.774 -5.984,5.69l-1.669,2.299c-0.191,-0.46 -0.431,-1.044 -0.719,-1.753c-0.287,-0.709 -0.584,-1.523 -0.891,-2.443c-0.077,-0.23 -0.173,-0.44 -0.288,-0.632c-0.115,-0.191 -0.249,-0.345 -0.402,-0.46Z" style="fill:#df624d;fill-rule:nonzero;"/><path d="M287.445,177.866c0.269,-0.268 0.547,-0.622 0.834,-1.063c0.288,-0.441 0.624,-0.929 1.007,-1.465l4.429,-3.047c0.537,-0.651 1.362,-1.484 2.474,-2.5c1.112,-1.015 2.492,-2.251 4.141,-3.707c0.192,-0.421 0.508,-0.91 0.949,-1.465c0.441,-0.556 0.969,-1.102 1.582,-1.638l3.106,-2.701l3.222,-3.391c0.613,-0.537 1.246,-0.958 1.898,-1.265c0.652,-0.306 1.361,-0.46 2.128,-0.46c0.844,0 1.486,0.106 1.927,0.317c0.441,0.21 0.681,0.507 0.719,0.89c-0.383,0.882 -0.786,1.763 -1.208,2.644l0.345,0.517c1.687,-0.651 3.01,-1.13 3.969,-1.436c0.959,-0.307 1.572,-0.46 1.841,-0.46c2.799,0 4.899,0.852 6.298,2.557c1.4,1.705 2.1,4.282 2.1,7.731c0,0.651 -0.077,1.417 -0.23,2.298c-0.153,0.882 -0.403,1.84 -0.748,2.874c-0.383,1.15 -0.796,2.107 -1.237,2.874c-0.441,0.766 -0.853,1.322 -1.236,1.666c0.153,0.499 0.326,0.853 0.517,1.064c0.192,0.21 0.441,0.316 0.748,0.316c0.307,0 0.623,-0.096 0.949,-0.288c0.326,-0.191 0.719,-0.478 1.179,-0.862c0.384,0.843 0.758,1.715 1.122,2.615c0.364,0.901 0.738,1.792 1.122,2.673c-0.69,0.613 -1.362,1.207 -2.013,1.782c-0.652,0.574 -1.343,1.13 -2.071,1.666c-0.882,0.728 -1.716,1.255 -2.502,1.581c-0.787,0.325 -1.563,0.488 -2.33,0.488c-0.882,0 -1.611,-0.21 -2.186,-0.632c-0.575,-0.421 -1.035,-1.015 -1.38,-1.782c-0.959,1.265 -2.119,2.424 -3.48,3.478c-1.362,1.053 -2.867,1.925 -4.516,2.615c-0.959,0.459 -1.831,0.814 -2.617,1.063c-0.786,0.249 -1.505,0.373 -2.157,0.373c-0.192,0 -0.566,0.077 -1.122,0.23c-0.556,0.154 -1.006,0.23 -1.352,0.23c-2.185,0 -4.16,-0.919 -5.924,-2.759c-1.764,-1.839 -2.646,-3.889 -2.646,-6.149c0,-0.92 0.211,-2.136 0.633,-3.65c0.421,-1.513 0.632,-2.404 0.632,-2.672c0,-0.268 -0.086,-0.489 -0.259,-0.661c-0.172,-0.173 -0.412,-0.259 -0.719,-0.259c-0.191,0 -0.652,0.288 -1.38,0.862c-0.729,0.575 -1.764,1.399 -3.106,2.472c-0.115,0.153 -0.25,0.383 -0.403,0.689c-0.153,0.307 -0.403,0.652 -0.748,1.035c-0.306,-0.881 -0.652,-1.772 -1.035,-2.673c-0.384,-0.9 -0.805,-1.772 -1.266,-2.615Zm27.668,-10.517c-0.191,0.038 -0.47,0.239 -0.834,0.603c-0.364,0.364 -0.719,0.814 -1.064,1.351c-0.537,0.881 -1.15,1.839 -1.841,2.874c-0.421,0.459 -0.872,0.814 -1.351,1.063c-0.48,0.249 -1.026,0.431 -1.64,0.546c-0.383,0.038 -0.786,0.412 -1.208,1.12c-0.422,0.709 -0.843,1.734 -1.265,3.075c-0.422,1.188 -0.729,2.203 -0.921,3.046c-0.191,0.843 -0.287,1.552 -0.287,2.127c0,1.073 0.268,1.877 0.805,2.414c0.537,0.536 1.361,0.804 2.474,0.804c1.764,0 3.384,-0.488 4.86,-1.465c1.477,-0.977 2.867,-2.443 4.17,-4.397c0.614,-0.728 1.189,-1.418 1.726,-2.069c0.307,-0.23 0.556,-0.603 0.748,-1.121c0.192,-0.517 0.383,-1.159 0.575,-1.925l1.035,-3.276c-0.345,-1.149 -0.671,-2.059 -0.977,-2.73c-0.307,-0.67 -0.614,-1.082 -0.921,-1.236c-0.191,-0.115 -0.613,-0.239 -1.265,-0.373c-0.652,-0.134 -1.592,-0.278 -2.819,-0.431Z" style="fill:#df624d;fill-rule:nonzero;"/><path d="M329.033,177.866l2.416,-3.218c0.499,-0.422 1.074,-0.987 1.726,-1.696c0.652,-0.708 1.38,-1.599 2.186,-2.672c0.307,-0.651 0.68,-1.37 1.121,-2.155c0.441,-0.786 0.95,-1.715 1.525,-2.788c0.23,-1.034 0.767,-2.212 1.61,-3.534c0.844,-1.322 2.014,-2.807 3.509,-4.455c2.109,-2.337 4.314,-4.827 6.615,-7.471c1.189,-1.763 2.483,-3.065 3.883,-3.908c1.4,-0.843 2.905,-1.265 4.515,-1.265c1.074,0 1.889,0.479 2.445,1.437c0.556,0.958 0.834,2.376 0.834,4.253c0,0.69 -0.47,1.763 -1.409,3.219c-0.94,1.456 -2.368,3.314 -4.286,5.575c-1.188,1.417 -2.435,2.825 -3.739,4.224c-1.303,1.398 -2.588,2.826 -3.853,4.282c-0.576,0.536 -1.18,1.12 -1.812,1.753c-0.633,0.632 -1.314,1.331 -2.042,2.097c-0.23,0.805 -0.48,1.705 -0.748,2.702c0,1.494 0.096,2.787 0.287,3.879c0.192,1.092 0.48,2.021 0.863,2.787c0.192,0.269 0.604,0.872 1.237,1.811c0.633,0.939 1.486,2.155 2.56,3.649c0.268,0.384 0.594,0.767 0.978,1.15c0.383,0.383 0.824,0.766 1.323,1.149c0.575,-0.23 1.687,-1.255 3.336,-3.075c1.649,-1.819 3.873,-4.396 6.672,-7.73l2.186,5.288c-0.268,0.306 -0.776,0.929 -1.524,1.868c-0.748,0.938 -1.659,2.174 -2.733,3.707c-1.227,1.609 -2.473,3.333 -3.738,5.172c0,0.383 0.182,0.824 0.546,1.322c0.364,0.498 0.815,1.054 1.352,1.667c0.997,1.149 1.85,2.644 2.56,4.483c0.709,1.839 1.255,4.08 1.639,6.724c-0.038,0.192 -0.086,0.498 -0.144,0.92c-0.057,0.421 -0.105,0.9 -0.144,1.437c-0.46,4.406 -3.173,8.812 -8.139,13.218c-4.966,4.407 -9.654,6.61 -14.064,6.61c-2.032,0 -3.653,-0.259 -4.861,-0.776c-1.208,-0.517 -2.061,-1.293 -2.559,-2.328c-0.192,-0.498 -0.345,-1.475 -0.46,-2.931c-0.115,-1.456 -0.173,-3.391 -0.173,-5.805c0,-0.23 0.105,-0.68 0.316,-1.35c0.211,-0.671 0.566,-1.581 1.065,-2.73c0.268,-0.767 0.642,-1.562 1.121,-2.385c0.48,-0.824 0.988,-1.715 1.524,-2.673c0.537,-0.804 1.084,-1.59 1.64,-2.356c0.556,-0.767 1.083,-1.533 1.582,-2.299c1.227,-1.341 2.32,-2.529 3.278,-3.564c0.729,-0.728 1.295,-1.417 1.697,-2.069c0.403,-0.651 0.604,-1.226 0.604,-1.724c-1.304,-1.801 -2.607,-3.525 -3.911,-5.172c-1.381,-1.725 -2.502,-3.449 -3.365,-5.173c-0.863,-1.724 -1.429,-3.487 -1.697,-5.287c-0.038,-0.23 -0.192,-0.594 -0.46,-1.092c-0.882,0.843 -1.745,1.705 -2.589,2.586c-0.153,-0.575 -0.422,-1.284 -0.805,-2.127c-0.383,-0.843 -0.882,-1.896 -1.496,-3.161Zm18.867,24.139c-0.23,0 -0.757,0.536 -1.581,1.609c-0.825,1.073 -1.947,2.663 -3.365,4.771c-0.806,1.264 -1.611,2.548 -2.416,3.85c-0.806,1.303 -1.649,2.587 -2.531,3.851c-0.307,0.421 -0.748,1.418 -1.323,2.989c-0.575,1.57 -0.863,2.567 -0.863,2.988c0,0.728 0.201,1.265 0.604,1.609c0.403,0.345 1.026,0.518 1.869,0.518c2.953,0 5.983,-1.6 9.089,-4.799c3.106,-3.2 4.659,-6.274 4.659,-9.225c0,-0.613 -0.115,-1.331 -0.345,-2.155c-0.23,-0.824 -0.537,-1.734 -0.92,-2.73c-0.499,-1.111 -0.978,-1.935 -1.438,-2.471c-0.461,-0.537 -0.94,-0.805 -1.439,-0.805Z" style="fill:#df624d;fill-rule:nonzero;"/><path d="M360.67,177.866c0.614,-0.804 1.227,-1.647 1.841,-2.528c2.799,-2.299 5.091,-4.512 6.874,-6.639c1.783,-2.126 3.077,-4.109 3.882,-5.948l-0.575,-2.759c0.499,-0.958 1.735,-2.088 3.71,-3.391c1.975,-1.302 3.576,-1.954 4.803,-1.954c1.304,0 2.407,0.383 3.308,1.15c0.901,0.766 1.773,1.571 2.617,2.414c0.422,0.268 0.729,0.479 0.92,0.632c1.534,1.149 2.685,2.739 3.452,4.77c0.767,2.031 1.15,4.502 1.15,7.414c0,1.533 -0.594,3.726 -1.783,6.581c-1.189,2.854 -1.783,5.009 -1.783,6.465c0,0.192 0.067,0.345 0.201,0.46c0.134,0.115 0.317,0.173 0.547,0.173c0.498,0 1.093,-0.221 1.783,-0.661c0.69,-0.441 1.438,-1.044 2.243,-1.811c2.033,-1.992 3.26,-3.094 3.681,-3.304c0.422,-0.211 0.94,-0.566 1.554,-1.064c0.306,0.767 0.671,1.59 1.092,2.472c0.422,0.881 0.825,1.82 1.208,2.816c-0.345,0.306 -0.738,0.67 -1.179,1.092c-0.441,0.421 -0.968,0.9 -1.582,1.437c-1.303,0.958 -3,2.117 -5.09,3.477c-2.09,1.36 -4.592,2.921 -7.507,4.684c-0.767,0.498 -1.649,0.9 -2.646,1.207c-1.61,0 -2.818,-0.24 -3.624,-0.719c-0.805,-0.479 -1.208,-1.254 -1.208,-2.327c0,-0.422 0.087,-0.91 0.259,-1.466c0.173,-0.555 0.412,-1.159 0.719,-1.81c0.23,-0.498 0.48,-1.006 0.748,-1.523c0.268,-0.518 0.499,-1.044 0.69,-1.581c0.844,-2.414 1.486,-4.655 1.927,-6.724c0.441,-2.069 0.662,-3.927 0.662,-5.575c0,-2.031 -0.317,-3.583 -0.949,-4.655c-0.633,-1.073 -1.582,-1.686 -2.848,-1.839c-0.843,0.459 -1.764,1.111 -2.761,1.954c-0.997,0.843 -2.013,1.896 -3.048,3.161c-1.112,1.379 -2.109,2.509 -2.991,3.391c-0.882,0.881 -1.611,1.475 -2.186,1.781c-0.345,0.575 -0.901,1.226 -1.668,1.954c-0.767,0.728 -1.784,1.514 -3.049,2.357c-0.077,0.153 -0.192,0.383 -0.345,0.689c-0.154,0.307 -0.403,0.652 -0.748,1.035c-0.307,-0.881 -0.652,-1.753 -1.035,-2.615c-0.384,-0.862 -0.806,-1.753 -1.266,-2.673Z" style="fill:#df624d;fill-rule:nonzero;"/><path d="M400.878,175.338l5.234,-3.449c0.192,-0.191 0.422,-0.45 0.69,-0.776c0.269,-0.325 0.576,-0.795 0.921,-1.408c0.268,-0.498 0.623,-0.919 1.064,-1.264c0.441,-0.345 0.949,-0.652 1.524,-0.92c0.307,-0.383 0.748,-0.862 1.323,-1.437c0.575,-0.574 1.304,-1.245 2.186,-2.011c0.422,-0.23 0.959,-0.565 1.611,-1.006c0.652,-0.441 1.361,-1.025 2.128,-1.753c3.49,-3.295 6.548,-5.766 9.175,-7.414c2.626,-1.647 4.841,-2.471 6.643,-2.471c0.997,0 1.736,0.21 2.215,0.632c0.479,0.421 0.719,1.015 0.719,1.782c0,0.804 -0.144,1.513 -0.431,2.126c-0.288,0.613 -0.739,1.13 -1.352,1.552c-0.959,0.69 -1.994,1.456 -3.106,2.299c-0.614,0.804 -1.362,1.657 -2.244,2.557c-0.882,0.901 -1.917,1.792 -3.106,2.673c-0.383,0.498 -0.709,0.939 -0.978,1.322c-0.191,0.191 -0.556,0.536 -1.093,1.034c-0.537,0.498 -1.246,1.073 -2.128,1.724c-0.383,0.843 -1.217,1.935 -2.502,3.276c-1.285,1.341 -3.001,2.951 -5.148,4.828c-0.269,0.268 -0.748,0.881 -1.438,1.839c-0.691,0.958 -1.592,2.223 -2.704,3.794l0.403,0.517c0.843,-0.268 1.725,-0.728 2.646,-1.38c0.92,-0.651 1.936,-1.513 3.048,-2.586c1.304,-1.188 2.368,-2.155 3.193,-2.902c0.824,-0.747 1.409,-1.236 1.754,-1.466c0.269,-0.153 0.537,-0.306 0.806,-0.46c0.268,-0.153 0.575,-0.344 0.92,-0.574c1.764,-2.108 3.413,-3.669 4.947,-4.684c1.534,-1.016 2.953,-1.523 4.256,-1.523c0.806,0 1.419,0.316 1.841,0.948c0.422,0.632 0.671,1.58 0.748,2.845c-0.077,1.916 -0.115,3.755 -0.115,5.517c-0.039,1.226 0.297,2.328 1.006,3.305c0.71,0.977 1.64,1.465 2.79,1.465c0.345,0 0.681,-0.095 1.007,-0.287c0.326,-0.191 0.661,-0.441 1.006,-0.747c0.269,-0.345 0.528,-0.671 0.777,-0.977c0.249,-0.307 0.508,-0.613 0.777,-0.92c0.153,-0.076 0.373,-0.21 0.661,-0.402c0.288,-0.192 0.566,-0.421 0.834,-0.69c0.537,1.15 0.988,2.156 1.352,3.018c0.364,0.862 0.642,1.619 0.834,2.27c-0.882,0.805 -1.755,1.638 -2.617,2.5c-0.863,0.862 -1.774,1.676 -2.733,2.443c-1.15,0.881 -2.262,1.542 -3.336,1.982c-1.074,0.441 -2.147,0.661 -3.221,0.661c-2.493,0 -4.41,-0.709 -5.752,-2.126c-1.342,-1.418 -2.128,-3.564 -2.359,-6.437c0,-0.345 -0.048,-0.699 -0.143,-1.063c-0.096,-0.364 -0.298,-0.738 -0.604,-1.121c-0.192,0.191 -0.403,0.393 -0.633,0.603c-0.23,0.211 -0.499,0.489 -0.805,0.834c-0.499,0.383 -1.122,0.862 -1.87,1.437c-0.748,0.574 -1.62,1.264 -2.617,2.069c-1.342,1.379 -2.473,2.509 -3.394,3.39c-0.92,0.882 -1.572,1.514 -1.956,1.897c-0.767,0.651 -1.658,1.303 -2.674,1.954c-1.017,0.652 -2.157,1.322 -3.423,2.012c-0.805,0.421 -1.495,0.756 -2.071,1.005c-0.575,0.25 -0.997,0.374 -1.265,0.374c-1.841,0 -3.202,-0.45 -4.084,-1.351c-0.882,-0.9 -1.323,-2.289 -1.323,-4.166c0,-1.035 0.22,-2.021 0.661,-2.96c0.441,-0.939 1.103,-1.849 1.985,-2.73c0.077,-0.498 0.115,-0.901 0.115,-1.207c0,-0.192 -0.048,-0.393 -0.144,-0.604c-0.096,-0.21 -0.22,-0.45 -0.374,-0.718c-0.23,-0.536 -0.489,-1.14 -0.776,-1.81c-0.288,-0.671 -0.604,-1.389 -0.949,-2.156c0.153,-0.153 0.373,-0.45 0.661,-0.89c0.288,-0.441 0.623,-0.987 1.007,-1.638Z" style="fill:#df624d;fill-rule:nonzero;"/><path d="M443.271,177.866c0.767,-0.996 1.754,-2.193 2.962,-3.592c1.208,-1.398 2.675,-2.998 4.401,-4.799c0.115,-0.345 0.268,-0.756 0.46,-1.235c0.192,-0.479 0.479,-1.083 0.863,-1.811c2.032,-3.027 3.854,-5.939 5.464,-8.736c1.611,-2.797 2.991,-5.517 4.142,-8.161c0.345,-0.651 0.719,-1.465 1.122,-2.442c0.402,-0.978 0.91,-2.079 1.524,-3.305c0.537,-0.92 1.064,-1.629 1.582,-2.127c0.517,-0.498 1.025,-0.747 1.524,-0.747c0.767,0 1.333,0.326 1.697,0.977c0.364,0.652 0.546,1.667 0.546,3.046c0,0.767 -0.661,3.248 -1.984,7.443c-1.323,4.196 -3.288,10.106 -5.896,17.73c-0.69,1.84 -1.457,4.416 -2.301,7.731c-0.844,3.314 -1.821,7.442 -2.934,12.385c-0.115,0.728 -0.239,1.571 -0.373,2.529c-0.135,0.958 -0.336,2.069 -0.604,3.333c-0.652,2.453 -1.113,4.407 -1.381,5.863c-0.268,1.456 -0.383,2.394 -0.345,2.816l0.23,0.46c0.192,-0.115 0.412,-0.479 0.662,-1.092c0.249,-0.613 0.469,-1.495 0.661,-2.644c0.23,-1.035 0.403,-1.906 0.518,-2.615c0.115,-0.709 0.134,-1.293 0.057,-1.753c0.844,-2.222 1.841,-5.067 2.991,-8.535c1.151,-3.467 2.493,-7.5 4.027,-12.098c0.613,-1.111 1.313,-2.462 2.099,-4.052c0.787,-1.59 1.621,-3.477 2.503,-5.661c0.882,-0.843 1.677,-1.466 2.387,-1.868c0.709,-0.402 1.313,-0.603 1.812,-0.603c1.073,0 2.07,0.287 2.991,0.862c0.92,0.575 1.764,1.417 2.531,2.529c0.191,0.268 0.546,0.948 1.064,2.04c0.518,1.092 1.217,2.577 2.099,4.454c0.499,1.15 1.017,2.04 1.553,2.673c0.537,0.632 1.055,0.967 1.554,1.005l2.415,5.288c-0.191,0.038 -0.699,0.172 -1.524,0.402c-0.824,0.23 -2.004,0.479 -3.537,0.747l-3.912,-1.436c-0.959,-0.269 -2.119,-1.207 -3.48,-2.817c-1.361,-1.609 -2.464,-2.548 -3.307,-2.816c-0.806,0.575 -1.669,1.705 -2.589,3.391c-0.92,1.686 -1.86,3.87 -2.818,6.552c-0.231,0.613 -0.528,1.274 -0.892,1.983c-0.364,0.709 -0.738,1.523 -1.122,2.442c-0.23,1.456 -0.498,2.855 -0.805,4.196c-0.499,1.149 -1.035,2.615 -1.611,4.397c-0.575,1.781 -1.188,3.898 -1.84,6.35c-0.192,0.843 -0.681,2.108 -1.467,3.794c-0.786,1.686 -1.256,2.969 -1.409,3.85c-0.077,0.537 -0.24,1.246 -0.489,2.127c-0.25,0.881 -0.623,1.916 -1.122,3.103c-0.882,1.533 -1.687,2.692 -2.416,3.478c-0.728,0.785 -1.342,1.178 -1.841,1.178c-1.15,0 -2.013,-0.556 -2.588,-1.667c-0.575,-1.111 -0.863,-2.759 -0.863,-4.943c0,-3.295 0.192,-6.916 0.575,-10.862c0.384,-3.947 0.959,-8.18 1.726,-12.702c0.23,-1.302 0.479,-2.624 0.748,-3.965c0.268,-1.341 0.537,-2.702 0.805,-4.081c0.345,-1.609 0.585,-3.084 0.719,-4.425c0.134,-1.341 0.163,-2.548 0.086,-3.621c-0.383,0.115 -1.025,0.603 -1.927,1.465c-0.901,0.863 -2.042,2.156 -3.422,3.88c-0.154,-0.575 -0.422,-1.284 -0.805,-2.127c-0.384,-0.843 -0.882,-1.896 -1.496,-3.161Z" style="fill:#df624d;fill-rule:nonzero;"/><path d="M483.479,177.866c0.843,-0.728 1.495,-1.302 1.955,-1.724c0.46,-0.421 0.825,-0.785 1.093,-1.092c0.614,-0.575 1.112,-1.13 1.496,-1.667c0.383,-0.536 0.594,-1.015 0.632,-1.436c0.346,-1.303 0.748,-2.931 1.208,-4.886c0.461,-1.954 1.055,-4.214 1.784,-6.781c0.345,-0.767 0.719,-1.734 1.121,-2.903c0.403,-1.168 0.834,-2.481 1.294,-3.937c0.461,-1.915 1.036,-3.659 1.726,-5.23c0.69,-1.571 1.457,-2.988 2.301,-4.253c0.268,-0.345 0.537,-0.776 0.805,-1.293c0.269,-0.517 0.537,-1.121 0.806,-1.81c0.268,-0.613 0.642,-1.332 1.121,-2.156c0.48,-0.823 1.026,-1.791 1.64,-2.902c1.572,-2.299 2.952,-4.272 4.141,-5.92c1.189,-1.647 2.167,-2.969 2.934,-3.965c1.38,-1.648 2.77,-3.19 4.17,-4.627c1.4,-1.437 2.809,-2.768 4.228,-3.994c1.304,-1.111 2.435,-1.926 3.394,-2.443c0.958,-0.517 1.725,-0.776 2.3,-0.776c0.537,0.46 0.921,0.881 1.151,1.265c0.268,0 0.537,-0.039 0.805,-0.115c0.997,0 1.726,0.402 2.186,1.207c0.46,0.804 0.69,1.992 0.69,3.563c0,0.345 -0.057,0.795 -0.172,1.351c-0.115,0.555 -0.269,1.235 -0.46,2.04c-0.269,0.268 -0.461,0.613 -0.576,1.034c-0.115,0.422 -0.211,0.843 -0.287,1.265c-0.039,0.536 -0.096,0.996 -0.173,1.379c-0.077,0.383 -0.172,0.728 -0.287,1.035c-0.499,0.919 -1.036,2.04 -1.611,3.362c-0.575,1.322 -1.189,2.864 -1.841,4.626c-0.383,0.652 -0.863,1.514 -1.438,2.587c-0.575,1.073 -1.265,2.26 -2.071,3.563c-0.383,0.728 -0.872,1.638 -1.466,2.73c-0.595,1.092 -1.352,2.347 -2.272,3.765c-0.231,0.536 -0.624,1.12 -1.18,1.752c-0.556,0.633 -1.217,1.37 -1.984,2.213c-0.23,0.613 -0.873,1.667 -1.927,3.161c-1.055,1.494 -2.521,3.429 -4.4,5.805c-0.921,1.188 -2.11,2.663 -3.567,4.425c-1.457,1.763 -3.144,3.851 -5.062,6.265c-0.728,2.874 -1.275,5.431 -1.639,7.673c-0.364,2.241 -0.546,4.186 -0.546,5.833c0,0.651 0.047,1.14 0.143,1.466c0.096,0.325 0.278,0.488 0.547,0.488l1.955,-2.126c0.729,-0.652 1.582,-1.859 2.56,-3.621c0.978,-1.763 2.1,-4.042 3.365,-6.839c1.112,-2.529 2.109,-4.474 2.991,-5.834c0.882,-1.36 1.611,-2.174 2.186,-2.443l2.013,-0.862c0.384,-0.153 0.729,-0.287 1.036,-0.402c0.307,-0.115 0.556,-0.172 0.748,-0.172c0.498,0 0.958,0.306 1.38,0.919c0.422,0.613 0.767,1.456 1.035,2.529c0.499,1.954 0.902,3.458 1.208,4.512c0.307,1.053 0.48,1.676 0.518,1.868c0.499,1.149 1.103,1.992 1.812,2.528c0.709,0.537 1.563,0.805 2.56,0.805c1.189,-0.192 2.588,-0.46 4.199,-0.805c0.307,0.767 0.661,1.59 1.064,2.472c0.403,0.881 0.815,1.82 1.237,2.816c-0.921,0.613 -1.851,1.207 -2.79,1.782c-0.94,0.574 -1.87,1.149 -2.79,1.724c-0.613,0.345 -1.495,0.603 -2.646,0.776c-1.15,0.172 -2.493,0.258 -4.026,0.258c-2.34,0 -4.152,-1.101 -5.436,-3.304c-1.285,-2.204 -2.061,-3.286 -2.33,-3.248l-0.345,0c-0.614,0.767 -1.256,1.552 -1.927,2.357c-0.671,0.804 -1.332,1.647 -1.984,2.529c-0.422,0.881 -1.017,1.896 -1.784,3.046c-0.767,1.149 -1.687,2.413 -2.761,3.793c-1.265,1.532 -2.377,2.682 -3.336,3.448c-0.959,0.767 -1.783,1.15 -2.473,1.15c-1.457,0 -2.598,-0.163 -3.423,-0.489c-0.824,-0.326 -1.313,-0.814 -1.467,-1.465c-0.46,-2.146 -0.814,-4.014 -1.064,-5.604c-0.249,-1.59 -0.374,-2.941 -0.374,-4.052c0,-0.345 0.02,-0.651 0.058,-0.919c0.038,-0.269 0.077,-0.518 0.115,-0.748c0.115,-0.498 0.249,-1.034 0.403,-1.609c0,-0.191 -0.048,-0.335 -0.144,-0.431c-0.096,-0.096 -0.259,-0.144 -0.489,-0.144c-0.115,0.154 -0.269,0.326 -0.46,0.518c-0.192,0.191 -0.46,0.402 -0.806,0.632c-0.153,-0.498 -0.421,-1.188 -0.805,-2.069c-0.383,-0.881 -0.882,-1.954 -1.495,-3.219Zm37.388,-53.105c-0.421,0 -1.265,0.757 -2.53,2.27c-1.266,1.514 -2.877,3.746 -4.832,6.696c-1.112,1.648 -2.205,3.286 -3.279,4.914c-1.074,1.628 -2.128,3.228 -3.164,4.799c-0.46,0.46 -0.795,0.92 -1.006,1.379c-0.211,0.46 -0.317,0.939 -0.317,1.437c-0.767,2.146 -1.514,4.157 -2.243,6.035c-0.69,2.031 -1.256,3.601 -1.697,4.713c-0.441,1.111 -0.7,1.762 -0.776,1.954l0.287,0.287c0.767,-0.69 1.419,-1.418 1.956,-2.184c0.767,-0.881 1.697,-2.021 2.79,-3.42c1.093,-1.398 2.329,-3.036 3.71,-4.913c1.38,-1.763 2.799,-3.995 4.256,-6.696c1.458,-2.701 3.03,-5.814 4.717,-9.339c0.959,-1.916 1.678,-3.449 2.157,-4.598c0.48,-1.15 0.719,-1.954 0.719,-2.414c0,-0.268 -0.048,-0.489 -0.144,-0.661c-0.095,-0.173 -0.297,-0.259 -0.604,-0.259Z" style="fill:#df624d;fill-rule:nonzero;"/><path d="M525.699,177.866c0.882,-0.919 2.234,-2.03 4.056,-3.333c1.821,-1.303 3.173,-2.376 4.055,-3.219c0.577,-0.689 1.327,-1.523 2.25,-2.5c0.923,-0.977 2.019,-2.136 3.288,-3.477c0.769,-0.689 1.519,-1.226 2.249,-1.609c0.731,-0.383 1.462,-0.575 2.193,-0.575c0.92,0 1.639,0.23 2.157,0.69c0.518,0.46 0.776,1.188 0.776,2.184c0,1.494 -0.575,3.908 -1.725,7.242c-1.151,3.333 -1.726,5.862 -1.726,7.586c0,0.383 0.086,0.651 0.259,0.805c0.172,0.153 0.374,0.229 0.604,0.229l0.288,-0.057c0.728,-0.46 1.581,-1.044 2.559,-1.753c0.978,-0.709 2.081,-1.58 3.308,-2.615c0.997,-0.92 2.233,-2.126 3.71,-3.621c1.476,-1.494 3.211,-3.218 5.206,-5.172c0.766,-0.613 1.639,-1.399 2.617,-2.357c0.978,-0.958 2.08,-2.107 3.307,-3.448c0.499,-0.69 1.199,-1.226 2.1,-1.609c0.901,-0.384 2.003,-0.575 3.307,-0.575c0.882,0 1.544,0.163 1.985,0.488c0.441,0.326 0.661,0.815 0.661,1.466c0,0.268 -0.029,0.527 -0.086,0.776c-0.058,0.249 -0.106,0.488 -0.144,0.718c-0.268,1.15 -0.671,2.558 -1.208,4.225c-0.537,1.666 -1.189,3.63 -1.956,5.891c-0.651,1.417 -1.332,3.113 -2.042,5.086c-0.709,1.973 -1.466,4.148 -2.272,6.523l0.402,0.517c0.803,-0.383 1.998,-1.293 3.585,-2.73c1.587,-1.436 3.585,-3.362 5.993,-5.776l2.301,5.288c-0.307,0.306 -0.68,0.68 -1.121,1.121c-0.441,0.44 -1.025,0.91 -1.753,1.408c-4.101,2.912 -7.617,5.795 -10.549,8.649c-2.931,2.855 -5.259,5.681 -6.983,8.478c-2.569,4.214 -4.705,7.644 -6.41,10.287c-1.706,2.644 -2.942,4.502 -3.708,5.575c-2.644,3.487 -5.154,6.073 -7.53,7.759c-2.376,1.686 -4.695,2.529 -6.956,2.529c-0.844,0 -1.458,-0.172 -1.841,-0.517c-0.384,-0.345 -0.575,-0.882 -0.575,-1.61c0,-0.383 0.096,-0.862 0.287,-1.436c0.192,-0.575 0.537,-1.188 1.036,-1.84c0.728,-1.034 1.398,-2.107 2.008,-3.218l1.714,-1.494c0.153,-0.498 0.23,-0.843 0.23,-1.035c0.152,-0.191 0.371,-0.421 0.657,-0.69c0.286,-0.268 0.62,-0.574 1.001,-0.919c0.267,-0.69 0.986,-1.83 2.155,-3.42c1.17,-1.59 2.809,-3.63 4.918,-6.121c1.572,-1.839 3.011,-3.477 4.314,-4.914c1.304,-1.436 2.416,-2.653 3.337,-3.649c0.153,-0.307 0.316,-0.671 0.489,-1.092c0.172,-0.422 0.316,-0.843 0.431,-1.265c0.498,-0.996 1.045,-2.203 1.639,-3.62c0.595,-1.418 1.314,-3.085 2.157,-5c0.384,-1.112 0.71,-2.386 0.978,-3.822c0.269,-1.437 0.518,-2.999 0.748,-4.684l-0.403,-1.667c-0.69,0.345 -1.447,0.862 -2.272,1.552c-0.824,0.689 -1.716,1.494 -2.675,2.413c-1.265,1.648 -2.55,3.018 -3.853,4.11c-1.304,1.092 -2.589,1.925 -3.854,2.5c-0.844,1.647 -1.927,2.864 -3.25,3.649c-1.323,0.786 -2.848,1.179 -4.573,1.179c-1.266,0 -2.224,-0.297 -2.876,-0.891c-0.652,-0.594 -0.978,-1.504 -0.978,-2.73c0,-0.23 0.029,-0.517 0.086,-0.862c0.058,-0.345 0.144,-0.747 0.259,-1.207c-0.154,-0.383 -0.345,-0.92 -0.575,-1.61c0.153,-0.651 0.287,-1.379 0.402,-2.183c0,-1.15 -0.086,-2.012 -0.259,-2.587c-0.172,-0.575 -0.45,-0.862 -0.834,-0.862l-0.23,0.115c-0.422,0.307 -1.016,0.766 -1.783,1.379c-0.767,0.613 -1.687,1.361 -2.761,2.242c-0.192,-0.498 -0.431,-1.092 -0.719,-1.782c-0.287,-0.689 -0.585,-1.494 -0.891,-2.414c-0.077,-0.23 -0.173,-0.44 -0.288,-0.632c-0.115,-0.191 -0.249,-0.345 -0.403,-0.46Z" style="fill:#df624d;fill-rule:nonzero;"/></g></g></svg>